<svg width="16" height="16" viewBox="0 0 16 16" fill="none" xmlns="http://www.w3.org/2000/svg">
<path d="M14.7355 4.09588C14.0402 2.90355 13.0967 1.95933 11.9036 1.26477C10.7113 0.570216 9.41006 0.222549 7.99995 0.222549C6.58984 0.222549 5.28861 0.570216 4.0955 1.26477C2.90317 1.95933 1.95895 2.90355 1.26439 4.09588C0.569835 5.28822 0.222168 6.59022 0.222168 8.00033C0.222168 9.41044 0.569057 10.7124 1.26439 11.9048C1.95972 13.0979 2.90317 14.0413 4.09628 14.7359C5.28861 15.4304 6.58984 15.7781 7.99995 15.7781C9.41006 15.7781 10.7113 15.4304 11.9044 14.7359C13.0967 14.0413 14.0409 13.0979 14.7363 11.9048C15.4308 10.7124 15.7777 9.41044 15.7777 8.00033C15.7777 6.59022 15.4308 5.28822 14.7355 4.09588ZM7.99995 1.51366C9.5555 1.51366 10.9337 2.01144 12.1377 3.00622C11.4222 3.91933 10.3597 4.67066 8.94884 5.26177C8.1695 3.85166 7.32484 2.67411 6.4125 1.73066C6.94295 1.58599 7.47028 1.51366 7.99995 1.51366ZM2.95217 3.95588C3.53861 3.21933 4.24017 2.64455 5.06072 2.22922C6.00339 3.16333 6.86906 4.32922 7.6585 5.72922C6.10295 6.19588 4.45872 6.42922 2.72661 6.42922C2.28095 6.42922 1.94417 6.41911 1.7155 6.39811C1.95428 5.50599 2.3665 4.69244 2.95217 3.95588ZM1.51328 8.00033C1.51328 7.95833 1.51561 7.90699 1.52106 7.84477C1.5265 7.78255 1.52883 7.73122 1.52883 7.68922C1.72639 7.70011 2.02739 7.70477 2.43183 7.70477C4.50539 7.70477 6.43428 7.41933 8.21772 6.84922C8.36317 7.13933 8.51406 7.46599 8.66883 7.82922C7.64217 8.05711 6.58906 8.61166 5.51028 9.49366C4.4315 10.3757 3.64439 11.3036 3.14661 12.2781C2.05772 11.0438 1.51328 9.61811 1.51328 8.00033ZM7.99995 14.487C6.52684 14.487 5.20461 14.0304 4.0325 13.1189C4.49995 12.1957 5.21784 11.3129 6.18772 10.4737C7.15684 9.63366 8.11895 9.11022 9.07328 8.90255C9.67372 10.5615 10.0789 12.2773 10.2866 14.0514C9.52906 14.3416 8.76684 14.487 7.99995 14.487ZM13.5066 11.407C12.9886 12.2361 12.3197 12.9159 11.4999 13.4455C11.3133 11.8278 10.9555 10.2512 10.4274 8.71588C11.1523 8.66455 11.8002 8.63811 12.3718 8.63811C12.9933 8.63811 13.6832 8.66455 14.4399 8.71588C14.3357 9.68033 14.0246 10.5771 13.5066 11.407ZM12.5422 7.51811C11.6399 7.51811 10.8054 7.55466 10.0377 7.627C9.84017 7.11911 9.66439 6.69911 9.50883 6.36699C11.1157 5.66233 12.2559 4.80677 12.9303 3.80033C13.8636 4.90011 14.3723 6.15466 14.4547 7.56477C13.8232 7.53366 13.1854 7.51811 12.5422 7.51811Z" fill="#181817"/>
</svg>
